<svg xmlns="http://www.w3.org/2000/svg" id="canvas" viewBox="282.309 329.254 1262.777 277.680"><path d="M 429.45,342.78 C 429.74 340.79, 428.86 339.07, 427.08 337.16 C 425.30 335.25, 423.87 334.20, 420.54 333.22 C 417.22 332.25, 414.85 332.20, 410.43 332.28 C 406.01 332.35, 403.57 332.71, 398.44 333.60 C 393.31 334.50, 390.50 335.04, 384.79 336.76 C 379.08 338.49, 375.94 339.67, 369.88 342.22 C 363.82 344.78, 360.34 346.30, 354.47 349.54 C 348.60 352.78, 345.65 354.84, 340.52 358.42 C 335.39 362.01, 332.77 363.83, 328.80 367.47 C 324.83 371.11, 322.90 372.73, 320.66 376.62 C 318.42 380.50, 317.30 382.95, 317.61 386.91 C 317.92 390.87, 319.21 393.33, 322.20 396.43 C 325.20 399.53, 327.68 400.35, 332.60 402.40 C 337.53 404.45, 340.58 405.12, 346.83 406.68 C 353.08 408.24, 356.77 408.77, 363.84 410.20 C 370.90 411.63, 374.69 412.06, 382.15 413.82 C 389.62 415.58, 393.99 416.62, 401.18 419.01 C 408.37 421.40, 412.12 422.84, 418.10 425.77 C 424.08 428.70, 426.72 430.17, 431.09 433.65 C 435.46 437.14, 437.26 439.28, 439.94 443.20 C 442.62 447.12, 443.62 449.09, 444.48 453.25 C 445.34 457.40, 445.18 459.46, 444.25 463.97 C 443.31 468.48, 442.47 471.09, 439.83 475.78 C 437.18 480.46, 435.31 482.91, 431.00 487.39 C 426.70 491.87, 424.15 494.13, 418.30 498.16 C 412.46 502.20, 408.67 504.14, 401.77 507.57 C 394.87 511.00, 391.20 512.83, 383.80 515.33 C 376.41 517.83, 372.43 518.65, 364.82 520.07 C 357.20 521.48, 353.07 521.80, 345.71 522.40 C 338.35 523.01, 334.63 523.12, 328.01 523.10 C 321.40 523.08, 317.97 523.00, 312.63 522.29 C 307.29 521.58, 304.66 520.84, 301.29 519.54 C 297.93 518.24, 297.17 517.15, 295.81 515.78 C 294.44 514.42, 294.46 514.36, 294.46 512.73 C 294.47 511.11, 294.30 510.44, 295.84 507.65 C 297.38 504.86, 299.23 502.30, 302.16 498.80 C 305.10 495.30, 307.48 493.29, 310.51 490.15 C 313.54 487.00, 316.62 485.36, 317.31 483.07 C 318.00 480.79, 316.43 478.58, 313.96 478.74 C 311.50 478.90, 308.71 481.05, 304.98 483.88 C 301.25 486.70, 298.81 488.94, 295.31 492.85 C 291.81 496.76, 289.46 499.28, 287.49 503.41 C 285.52 507.54, 285.01 509.75, 285.46 513.48 C 285.91 517.21, 287.02 519.45, 289.74 522.05 C 292.45 524.65, 294.58 525.22, 299.05 526.46 C 303.51 527.70, 306.25 527.89, 312.05 528.26 C 317.86 528.62, 321.27 528.51, 328.09 528.29 C 334.90 528.07, 338.62 527.90, 346.14 527.15 C 353.65 526.41, 357.84 526.06, 365.66 524.58 C 373.49 523.09, 377.63 522.25, 385.27 519.71 C 392.92 517.18, 396.71 515.36, 403.89 511.91 C 411.08 508.46, 414.97 506.57, 421.20 502.46 C 427.43 498.36, 430.24 496.11, 435.05 491.41 C 439.86 486.70, 442.12 484.16, 445.25 478.94 C 448.38 473.72, 449.57 470.72, 450.70 465.31 C 451.82 459.89, 452.03 456.98, 450.88 451.86 C 449.72 446.73, 448.21 444.19, 444.92 439.67 C 441.64 435.16, 439.39 433.00, 434.46 429.29 C 429.54 425.59, 426.65 424.16, 420.31 421.17 C 413.96 418.18, 410.12 416.78, 402.73 414.34 C 395.33 411.90, 390.88 410.87, 383.34 408.97 C 375.80 407.07, 371.98 406.55, 365.04 404.84 C 358.09 403.14, 354.46 402.33, 348.60 400.45 C 342.74 398.57, 339.81 397.45, 335.74 395.44 C 331.67 393.44, 330.17 392.26, 328.24 390.42 C 326.31 388.57, 326.27 388.24, 326.10 386.23 C 325.93 384.21, 325.92 383.13, 327.38 380.33 C 328.84 377.54, 330.08 375.65, 333.41 372.24 C 336.74 368.84, 339.24 366.82, 344.01 363.30 C 348.79 359.77, 351.64 357.72, 357.27 354.64 C 362.90 351.55, 366.31 350.12, 372.16 347.85 C 378.01 345.58, 381.09 344.54, 386.53 343.29 C 391.97 342.04, 394.72 341.82, 399.34 341.62 C 403.96 341.42, 406.17 341.58, 409.63 342.29 C 413.10 343.00, 414.38 344.31, 416.67 345.16 C 418.96 346.01, 419.27 346.15, 421.07 346.53 C 422.87 346.92, 423.97 347.82, 425.65 347.07 C 427.33 346.32, 429.17 344.76, 429.45 342.78" style="stroke: black; fill: black;"/><path d="M 502.82,357.78 C 501.43 357.40, 500.62 357.40, 498.97 358.51 C 497.33 359.61, 495.42 360.35, 494.62 363.32 C 493.81 366.29, 494.96 368.69, 494.95 373.35 C 494.94 378.00, 494.84 380.86, 494.57 386.60 C 494.30 392.34, 494.05 395.36, 493.61 402.04 C 493.16 408.73, 492.81 412.53, 492.34 420.03 C 491.88 427.53, 491.81 431.50, 491.29 439.55 C 490.76 447.59, 490.17 452.11, 489.72 460.25 C 489.28 468.38, 489.23 472.59, 489.04 480.22 C 488.86 487.84, 488.99 491.66, 488.79 498.39 C 488.60 505.11, 488.37 508.38, 488.07 513.84 C 487.76 519.31, 487.24 521.73, 487.26 525.70 C 487.28 529.67, 487.01 531.80, 488.17 533.70 C 489.33 535.60, 491.15 535.83, 493.05 535.19 C 494.96 534.56, 496.71 533.12, 497.70 530.52 C 498.68 527.93, 498.60 525.47, 497.96 522.22 C 497.32 518.97, 496.42 516.69, 494.49 514.28 C 492.56 511.87, 490.49 510.64, 488.31 510.16 C 486.13 509.67, 485.01 510.20, 483.60 511.85 C 482.19 513.50, 481.54 515.55, 481.25 518.41 C 480.97 521.27, 481.29 523.24, 482.18 526.14 C 483.07 529.04, 483.81 531.04, 485.68 532.91 C 487.55 534.78, 489.50 535.48, 491.52 535.48 C 493.55 535.48, 495.06 534.94, 495.82 532.91 C 496.57 530.88, 495.62 529.14, 495.29 525.33 C 494.95 521.52, 494.40 519.24, 494.14 513.87 C 493.87 508.49, 494.02 505.15, 493.95 498.44 C 493.88 491.72, 493.69 487.88, 493.77 480.30 C 493.84 472.71, 493.87 468.58, 494.32 460.50 C 494.77 452.42, 495.39 447.90, 496.01 439.88 C 496.64 431.87, 496.75 427.88, 497.44 420.43 C 498.13 412.97, 498.59 409.22, 499.47 402.63 C 500.35 396.04, 500.77 393.01, 501.85 387.46 C 502.92 381.91, 503.47 379.02, 504.83 374.88 C 506.18 370.73, 508.09 369.23, 508.61 366.75 C 509.14 364.26, 508.00 363.74, 507.47 362.47 C 506.94 361.21, 506.89 361.34, 505.96 360.40 C 505.03 359.47, 504.22 358.16, 502.82 357.78" style="stroke: black; fill: black;"/><path d="M 450.20,469.55 C 451.15 471.08, 452.05 472.09, 454.54 472.51 C 457.03 472.92, 458.82 472.07, 462.65 471.61 C 466.48 471.15, 468.75 470.74, 473.67 470.22 C 478.60 469.69, 481.59 469.17, 487.29 469.00 C 492.98 468.83, 495.95 469.18, 502.15 469.37 C 508.35 469.57, 512.39 469.55, 518.27 469.95 C 524.15 470.35, 527.01 470.99, 531.57 471.37 C 536.12 471.75, 538.99 472.66, 541.02 471.84 C 543.06 471.03, 543.45 468.69, 541.72 467.30 C 539.99 465.91, 536.98 465.66, 532.38 464.89 C 527.77 464.12, 524.69 463.83, 518.69 463.46 C 512.70 463.08, 508.66 463.29, 502.38 463.02 C 496.11 462.75, 493.13 462.38, 487.34 462.12 C 481.55 461.87, 478.46 461.99, 473.43 461.75 C 468.40 461.52, 466.12 461.06, 462.18 460.94 C 458.24 460.83, 456.18 460.40, 453.71 461.17 C 451.23 461.95, 450.50 463.16, 449.80 464.83 C 449.10 466.51, 449.26 468.01, 450.20 469.55" style="stroke: black; fill: black;"/><path d="M 559.01,507.69 C 559.89 508.99, 560.30 509.26, 562.18 509.75 C 564.05 510.24, 565.47 511.05, 568.38 510.15 C 571.29 509.24, 572.94 507.30, 576.72 505.21 C 580.49 503.12, 582.92 502.03, 587.24 499.70 C 591.56 497.38, 594.00 496.19, 598.33 493.58 C 602.67 490.98, 604.93 489.45, 608.92 486.68 C 612.90 483.90, 614.97 482.53, 618.24 479.71 C 621.51 476.89, 623.11 475.65, 625.27 472.57 C 627.42 469.49, 628.36 467.70, 629.01 464.31 C 629.66 460.92, 629.61 458.96, 628.52 455.63 C 627.44 452.30, 626.49 450.03, 623.60 447.67 C 620.71 445.30, 618.24 444.49, 614.09 443.81 C 609.94 443.14, 607.66 443.55, 602.84 444.29 C 598.02 445.02, 595.45 445.61, 589.98 447.48 C 584.52 449.36, 581.19 450.65, 575.50 453.66 C 569.80 456.67, 566.80 458.74, 561.50 462.55 C 556.20 466.36, 553.50 468.45, 549.01 472.71 C 544.52 476.98, 542.14 479.25, 539.07 483.87 C 535.99 488.48, 534.77 491.00, 533.64 495.78 C 532.50 500.56, 532.39 503.15, 533.40 507.77 C 534.42 512.38, 535.65 514.85, 538.72 518.86 C 541.79 522.87, 544.07 524.77, 548.77 527.80 C 553.47 530.83, 556.37 532.05, 562.22 534.03 C 568.06 536.01, 571.29 536.70, 578.01 537.71 C 584.73 538.72, 588.58 539.06, 595.81 539.09 C 603.04 539.11, 606.91 538.78, 614.14 537.84 C 621.37 536.89, 625.06 536.09, 631.95 534.35 C 638.84 532.61, 642.34 531.56, 648.58 529.12 C 654.82 526.67, 658.19 524.95, 663.15 522.12 C 668.12 519.29, 670.31 517.75, 673.39 514.98 C 676.46 512.20, 678.10 510.22, 678.54 508.27 C 678.97 506.32, 677.42 504.90, 675.54 505.21 C 673.66 505.51, 672.26 507.48, 669.14 509.79 C 666.02 512.10, 664.47 513.90, 659.94 516.75 C 655.41 519.60, 652.35 521.51, 646.49 524.04 C 640.64 526.56, 637.26 527.63, 630.66 529.37 C 624.06 531.11, 620.44 531.85, 613.48 532.73 C 606.53 533.60, 602.78 533.88, 595.87 533.75 C 588.96 533.61, 585.24 533.19, 578.94 532.06 C 572.63 530.93, 569.61 530.10, 564.36 528.08 C 559.11 526.06, 556.62 524.71, 552.68 521.96 C 548.74 519.21, 547.07 517.50, 544.66 514.33 C 542.26 511.16, 541.49 509.50, 540.66 506.09 C 539.83 502.69, 539.74 501.06, 540.51 497.32 C 541.28 493.58, 541.97 491.45, 544.51 487.40 C 547.06 483.35, 549.12 481.07, 553.21 477.08 C 557.31 473.10, 559.95 471.00, 564.99 467.46 C 570.02 463.92, 572.97 461.99, 578.39 459.38 C 583.81 456.77, 587.03 455.72, 592.08 454.41 C 597.12 453.11, 599.67 452.94, 603.62 452.87 C 607.57 452.80, 609.29 453.28, 611.84 454.07 C 614.39 454.87, 614.96 455.83, 616.36 456.84 C 617.75 457.86, 618.31 458.06, 618.83 459.16 C 619.35 460.25, 619.32 460.69, 618.97 462.30 C 618.62 463.92, 618.40 465.00, 617.08 467.23 C 615.77 469.46, 614.95 470.84, 612.40 473.44 C 609.85 476.05, 607.91 477.60, 604.31 480.26 C 600.71 482.93, 598.55 484.48, 594.40 486.78 C 590.25 489.09, 587.91 490.09, 583.58 491.77 C 579.24 493.45, 576.63 494.20, 572.71 495.19 C 568.78 496.18, 566.57 495.81, 563.94 496.73 C 561.32 497.65, 560.82 498.49, 559.58 499.79 C 558.35 501.10, 557.89 501.66, 557.78 503.23 C 557.66 504.81, 558.13 506.38, 559.01 507.69" style="stroke: black; fill: black;"/><path d="M 734.90,383.03 C 736.04 381.30, 736.06 379.57, 735.60 377.02 C 735.14 374.46, 734.50 372.61, 732.60 370.24 C 730.70 367.88, 728.93 366.58, 726.08 365.19 C 723.23 363.80, 721.50 363.34, 718.35 363.27 C 715.19 363.20, 713.23 363.42, 710.31 364.83 C 707.39 366.25, 705.75 367.30, 703.74 370.35 C 701.73 373.40, 701.58 375.58, 700.25 380.08 C 698.92 384.57, 698.28 386.92, 697.10 392.82 C 695.91 398.71, 695.10 402.21, 694.32 409.57 C 693.53 416.92, 693.53 421.07, 693.18 429.58 C 692.83 438.09, 692.72 442.73, 692.58 452.12 C 692.43 461.52, 692.31 466.73, 692.45 476.56 C 692.59 486.39, 692.85 491.53, 693.29 501.25 C 693.73 510.98, 693.91 515.99, 694.66 525.17 C 695.41 534.35, 696.10 538.97, 697.03 547.15 C 697.97 555.34, 698.68 559.18, 699.34 566.11 C 699.99 573.03, 700.17 576.37, 700.32 581.77 C 700.47 587.18, 700.19 589.61, 700.09 593.14 C 700.00 596.66, 699.70 597.74, 699.82 599.41 C 699.95 601.08, 699.96 601.00, 700.73 601.48 C 701.50 601.95, 702.90 602.07, 703.68 601.78 C 704.46 601.50, 705.60 599.92, 704.62 600.05 C 703.63 600.19, 699.51 601.74, 698.77 602.45 C 698.02 603.17, 699.77 603.38, 700.89 603.61 C 702.01 603.85, 702.95 604.20, 704.35 603.61 C 705.75 603.02, 707.16 602.81, 707.88 600.67 C 708.60 598.52, 708.31 596.76, 707.96 592.88 C 707.62 589.00, 706.94 586.75, 706.17 581.28 C 705.40 575.81, 705.10 572.47, 704.10 565.54 C 703.11 558.61, 702.32 554.77, 701.20 546.63 C 700.09 538.49, 699.36 533.95, 698.53 524.84 C 697.70 515.73, 697.50 510.75, 697.06 501.08 C 696.61 491.42, 696.37 486.29, 696.29 476.52 C 696.22 466.74, 696.38 461.55, 696.68 452.22 C 696.98 442.88, 697.18 438.23, 697.80 429.85 C 698.41 421.47, 698.57 417.37, 699.77 410.32 C 700.96 403.26, 702.01 399.93, 703.77 394.56 C 705.53 389.19, 706.64 386.94, 708.56 383.46 C 710.48 379.98, 711.94 379.01, 713.38 377.16 C 714.83 375.32, 714.98 375.00, 715.80 374.23 C 716.62 373.46, 716.97 373.08, 717.47 373.32 C 717.97 373.57, 717.62 374.19, 718.30 375.47 C 718.99 376.75, 719.58 378.12, 720.90 379.73 C 722.21 381.33, 723.07 382.31, 724.88 383.50 C 726.68 384.69, 727.91 385.77, 729.92 385.67 C 731.92 385.58, 733.77 384.76, 734.90 383.03" style="stroke: black; fill: black;"/><path d="M 673.24,518.70 C 674.59 519.76, 675.49 520.01, 677.73 519.74 C 679.97 519.47, 681.18 518.81, 684.44 517.35 C 687.69 515.89, 689.75 514.28, 694.01 512.45 C 698.27 510.61, 700.59 509.85, 705.73 508.20 C 710.87 506.54, 714.08 505.62, 719.72 504.18 C 725.36 502.74, 728.19 502.22, 733.93 501.00 C 739.66 499.77, 742.52 499.15, 748.38 498.05 C 754.24 496.95, 757.34 496.47, 763.23 495.49 C 769.11 494.50, 772.15 494.19, 777.81 493.11 C 783.47 492.04, 786.29 491.29, 791.52 490.13 C 796.74 488.96, 799.30 488.41, 803.95 487.27 C 808.61 486.14, 810.91 485.77, 814.80 484.47 C 818.68 483.17, 820.73 482.83, 823.39 480.76 C 826.05 478.69, 827.13 477.09, 828.08 474.11 C 829.03 471.12, 829.19 468.93, 828.15 465.83 C 827.10 462.74, 825.82 460.64, 822.84 458.63 C 819.87 456.62, 817.58 456.49, 813.27 455.77 C 808.96 455.04, 806.33 454.89, 801.30 454.99 C 796.28 455.09, 793.38 455.22, 788.14 456.28 C 782.89 457.35, 780.10 458.16, 775.07 460.32 C 770.03 462.49, 767.44 463.90, 762.98 467.12 C 758.51 470.34, 756.27 472.26, 752.74 476.42 C 749.22 480.57, 747.57 483.08, 745.37 487.92 C 743.17 492.75, 742.29 495.60, 741.74 500.59 C 741.20 505.58, 741.34 508.41, 742.64 512.87 C 743.95 517.32, 745.20 519.71, 748.25 522.86 C 751.31 526.00, 753.64 527.06, 757.91 528.59 C 762.17 530.12, 764.75 530.57, 769.59 530.51 C 774.44 530.45, 777.23 529.83, 782.14 528.30 C 787.06 526.77, 789.60 525.39, 794.18 522.84 C 798.76 520.29, 800.93 518.82, 805.04 515.56 C 809.14 512.31, 811.25 510.40, 814.69 506.58 C 818.14 502.76, 819.79 500.66, 822.26 496.48 C 824.73 492.29, 825.92 489.79, 827.06 485.67 C 828.20 481.56, 828.84 478.92, 827.96 475.90 C 827.09 472.88, 825.24 471.54, 822.68 470.58 C 820.12 469.62, 817.70 469.59, 815.18 471.11 C 812.65 472.62, 811.25 474.56, 810.06 478.16 C 808.86 481.75, 809.26 484.48, 809.19 489.08 C 809.12 493.67, 809.31 496.36, 809.71 501.15 C 810.11 505.93, 810.19 508.47, 811.21 513.00 C 812.23 517.52, 813.01 519.82, 814.80 523.77 C 816.60 527.72, 817.53 529.75, 820.18 532.76 C 822.83 535.77, 824.77 537.07, 828.06 538.81 C 831.35 540.55, 833.44 540.94, 836.63 541.44 C 839.83 541.94, 841.26 541.71, 844.04 541.31 C 846.83 540.91, 848.55 540.89, 850.57 539.45 C 852.58 538.01, 854.13 536.10, 854.11 534.11 C 854.09 532.12, 852.04 530.27, 850.47 529.50 C 848.90 528.73, 847.65 530.12, 846.26 530.28 C 844.88 530.43, 845.14 530.48, 843.56 530.27 C 841.98 530.07, 840.62 529.53, 838.37 529.26 C 836.12 528.98, 834.55 529.51, 832.31 528.88 C 830.07 528.25, 829.09 527.91, 827.19 526.11 C 825.29 524.32, 824.35 522.92, 822.83 519.93 C 821.30 516.93, 820.38 514.98, 819.55 511.15 C 818.71 507.32, 818.62 504.99, 818.65 500.78 C 818.68 496.56, 818.97 493.92, 819.70 490.07 C 820.44 486.22, 821.77 484.28, 822.31 481.52 C 822.85 478.76, 822.87 477.68, 822.43 476.28 C 821.98 474.89, 821.01 474.44, 820.08 474.54 C 819.15 474.65, 818.22 475.02, 817.79 476.83 C 817.35 478.64, 818.42 480.44, 817.92 483.61 C 817.41 486.78, 817.02 489.06, 815.26 492.68 C 813.50 496.29, 812.08 498.24, 809.13 501.67 C 806.18 505.11, 804.21 506.92, 800.51 509.84 C 796.81 512.76, 794.74 514.10, 790.62 516.28 C 786.50 518.46, 784.10 519.56, 779.90 520.74 C 775.69 521.92, 773.41 522.23, 769.59 522.18 C 765.76 522.13, 763.84 521.55, 760.78 520.49 C 757.72 519.42, 756.36 518.84, 754.30 516.84 C 752.24 514.84, 751.45 513.61, 750.47 510.50 C 749.48 507.39, 749.07 505.24, 749.37 501.31 C 749.67 497.38, 750.22 494.91, 751.96 490.83 C 753.70 486.75, 755.07 484.52, 758.08 480.90 C 761.09 477.29, 763.07 475.56, 767.01 472.76 C 770.95 469.96, 773.31 468.68, 777.79 466.90 C 782.28 465.13, 784.80 464.50, 789.44 463.87 C 794.08 463.25, 796.75 463.34, 801.00 463.76 C 805.25 464.19, 807.61 464.88, 810.69 466.01 C 813.77 467.14, 814.55 468.56, 816.40 469.43 C 818.26 470.30, 819.18 470.09, 819.98 470.35 C 820.79 470.61, 820.99 470.33, 820.45 470.72 C 819.90 471.11, 819.05 471.14, 817.26 472.29 C 815.46 473.44, 814.55 474.88, 811.48 476.46 C 808.41 478.04, 806.22 478.74, 801.92 480.19 C 797.61 481.64, 795.00 482.34, 789.94 483.71 C 784.87 485.07, 782.14 485.84, 776.59 487.01 C 771.05 488.17, 768.06 488.49, 762.20 489.52 C 756.34 490.55, 753.18 491.07, 747.28 492.16 C 741.38 493.25, 738.50 493.83, 732.69 494.96 C 726.88 496.09, 724.01 496.58, 718.23 497.81 C 712.45 499.03, 709.20 499.88, 703.79 501.11 C 698.39 502.34, 695.90 502.83, 691.21 503.95 C 686.52 505.06, 683.92 505.50, 680.34 506.66 C 676.76 507.82, 675.19 508.20, 673.31 509.75 C 671.44 511.30, 670.99 512.62, 670.97 514.41 C 670.96 516.20, 671.89 517.63, 673.24 518.70" style="stroke: black; fill: black;"/><path d="M 859.55,474.03 C 857.99 474.03, 856.97 474.50, 855.68 475.98 C 854.40 477.47, 853.37 478.73, 853.12 481.45 C 852.87 484.16, 853.71 485.94, 854.45 489.56 C 855.19 493.18, 856.05 495.44, 856.81 499.54 C 857.58 503.64, 857.81 506.02, 858.26 510.06 C 858.72 514.11, 858.51 516.24, 859.09 519.77 C 859.66 523.29, 859.40 525.34, 861.13 527.68 C 862.86 530.03, 864.87 531.15, 867.72 531.47 C 870.57 531.80, 873.06 531.39, 875.37 529.32 C 877.68 527.25, 878.03 525.02, 879.26 521.11 C 880.50 517.20, 880.64 514.46, 881.56 509.76 C 882.48 505.06, 882.74 502.37, 883.87 497.61 C 885.00 492.85, 885.66 490.28, 887.21 485.97 C 888.76 481.66, 889.63 479.58, 891.62 476.04 C 893.61 472.51, 894.82 470.89, 897.18 468.30 C 899.53 465.71, 901.03 464.47, 903.40 463.09 C 905.76 461.71, 906.98 461.74, 908.99 461.41 C 911.00 461.08, 911.74 460.97, 913.46 461.44 C 915.18 461.90, 915.86 462.30, 917.58 463.73 C 919.30 465.16, 920.45 465.99, 922.07 468.58 C 923.69 471.17, 924.46 472.92, 925.66 476.69 C 926.86 480.47, 927.30 483.06, 928.07 487.44 C 928.83 491.82, 929.08 494.12, 929.48 498.60 C 929.88 503.08, 929.96 505.40, 930.08 509.84 C 930.19 514.27, 930.11 516.64, 930.03 520.76 C 929.96 524.88, 929.69 526.77, 929.71 530.43 C 929.73 534.09, 929.12 535.84, 930.12 539.06 C 931.12 542.27, 932.11 544.32, 934.71 546.52 C 937.31 548.71, 939.62 549.74, 943.10 550.04 C 946.59 550.34, 949.01 549.48, 952.15 548.01 C 955.29 546.55, 957.13 545.33, 958.82 542.73 C 960.51 540.12, 961.11 537.33, 960.59 535.00 C 960.08 532.66, 958.44 531.53, 956.25 531.04 C 954.06 530.55, 951.95 531.52, 949.63 532.53 C 947.31 533.55, 946.20 534.61, 944.65 536.10 C 943.11 537.59, 942.53 539.19, 941.89 539.98 C 941.26 540.78, 941.69 540.84, 941.47 540.08 C 941.25 539.32, 941.22 538.24, 940.81 536.18 C 940.39 534.13, 939.80 532.94, 939.39 529.81 C 938.97 526.69, 938.98 524.63, 938.73 520.57 C 938.47 516.51, 938.39 514.03, 938.13 509.50 C 937.87 504.98, 937.79 502.60, 937.43 497.94 C 937.08 493.28, 936.94 490.94, 936.34 486.20 C 935.74 481.47, 935.52 478.76, 934.42 474.26 C 933.32 469.76, 932.78 467.46, 930.84 463.69 C 928.90 459.91, 927.66 457.93, 924.72 455.37 C 921.78 452.82, 919.71 451.77, 916.13 450.89 C 912.55 450.01, 910.45 450.16, 906.84 450.99 C 903.22 451.82, 901.30 452.69, 898.04 455.05 C 894.79 457.41, 893.24 459.33, 890.56 462.79 C 887.88 466.24, 886.76 468.19, 884.65 472.30 C 882.54 476.41, 881.70 478.71, 880.00 483.35 C 878.30 487.99, 877.62 490.70, 876.14 495.50 C 874.65 500.29, 874.11 502.96, 872.58 507.33 C 871.05 511.71, 869.75 514.08, 868.48 517.36 C 867.22 520.65, 866.33 521.94, 866.26 523.75 C 866.20 525.56, 867.37 526.26, 868.16 526.40 C 868.95 526.55, 869.89 526.14, 870.21 524.48 C 870.53 522.83, 870.19 521.26, 869.76 518.14 C 869.32 515.02, 868.54 512.84, 868.02 508.89 C 867.51 504.93, 867.37 502.43, 867.19 498.35 C 867.01 494.27, 866.98 491.89, 867.12 488.48 C 867.26 485.07, 868.20 483.46, 867.90 481.28 C 867.59 479.10, 866.50 478.63, 865.62 477.57 C 864.74 476.51, 864.71 476.68, 863.50 475.97 C 862.29 475.26, 861.12 474.02, 859.55 474.03" style="stroke: black; fill: black;"/><path d="M 1169.40,388.75 C 1167.95 389.68, 1167.44 390.72, 1166.99 392.64 C 1166.53 394.55, 1166.42 395.72, 1167.14 398.32 C 1167.86 400.91, 1169.13 402.14, 1170.58 405.61 C 1172.03 409.09, 1173.12 411.08, 1174.39 415.71 C 1175.66 420.34, 1176.16 423.02, 1176.93 428.76 C 1177.71 434.51, 1177.85 437.79, 1178.26 444.41 C 1178.67 451.04, 1178.81 454.78, 1178.98 461.90 C 1179.14 469.03, 1179.07 472.91, 1179.07 480.03 C 1179.07 487.14, 1179.03 490.96, 1178.97 497.49 C 1178.91 504.02, 1178.98 507.21, 1178.79 512.67 C 1178.59 518.12, 1178.06 520.56, 1178.01 524.78 C 1177.95 528.99, 1177.40 531.03, 1178.51 533.75 C 1179.62 536.47, 1181.41 537.33, 1183.56 538.37 C 1185.71 539.42, 1187.58 539.48, 1189.25 538.98 C 1190.93 538.49, 1192.13 537.44, 1191.92 535.88 C 1191.70 534.32, 1189.35 531.98, 1188.18 531.17 C 1187.01 530.37, 1186.40 531.47, 1186.09 531.85 C 1185.78 532.23, 1186.47 533.18, 1186.64 533.08 C 1186.81 532.98, 1187.11 533.06, 1186.95 531.34 C 1186.79 529.61, 1186.22 528.20, 1185.84 524.46 C 1185.46 520.71, 1185.32 518.02, 1185.05 512.62 C 1184.78 507.22, 1184.63 503.98, 1184.48 497.45 C 1184.34 490.93, 1184.36 487.14, 1184.33 480.01 C 1184.30 472.89, 1184.39 468.99, 1184.33 461.82 C 1184.28 454.65, 1184.22 450.91, 1184.07 444.17 C 1183.93 437.44, 1183.93 434.13, 1183.61 428.14 C 1183.28 422.15, 1182.96 419.23, 1182.46 414.22 C 1181.95 409.22, 1181.39 407.02, 1181.07 403.10 C 1180.75 399.18, 1181.54 397.27, 1180.84 394.61 C 1180.13 391.95, 1178.88 391.12, 1177.55 389.78 C 1176.22 388.45, 1175.82 388.16, 1174.19 387.95 C 1172.56 387.74, 1170.84 387.81, 1169.40 388.75" style="stroke: black; fill: black;"/><path d="M 1267.81,473.42 C 1269.20 472.27, 1269.89 471.36, 1270.01 469.64 C 1270.13 467.92, 1269.80 466.51, 1268.41 464.85 C 1267.03 463.18, 1265.48 462.22, 1263.11 461.30 C 1260.74 460.38, 1259.26 460.31, 1256.57 460.25 C 1253.89 460.19, 1252.45 460.18, 1249.68 461.00 C 1246.91 461.82, 1245.33 462.38, 1242.74 464.35 C 1240.14 466.32, 1238.96 467.80, 1236.69 470.86 C 1234.43 473.92, 1233.33 475.86, 1231.41 479.64 C 1229.49 483.43, 1228.53 485.52, 1227.09 489.80 C 1225.65 494.08, 1224.90 496.51, 1224.21 501.04 C 1223.52 505.58, 1223.23 508.12, 1223.63 512.49 C 1224.04 516.86, 1224.49 519.08, 1226.24 522.89 C 1227.99 526.70, 1229.23 528.86, 1232.40 531.53 C 1235.58 534.21, 1237.82 535.16, 1242.12 536.27 C 1246.42 537.37, 1249.12 537.31, 1253.89 537.06 C 1258.66 536.81, 1261.18 536.39, 1265.98 535.02 C 1270.78 533.64, 1273.27 532.41, 1277.88 530.18 C 1282.49 527.95, 1284.92 526.77, 1289.02 523.86 C 1293.12 520.96, 1295.32 519.01, 1298.39 515.66 C 1301.45 512.31, 1302.55 510.83, 1304.34 507.11 C 1306.12 503.39, 1307.32 501.00, 1307.32 497.07 C 1307.31 493.13, 1306.20 490.84, 1304.30 487.44 C 1302.40 484.04, 1300.89 482.66, 1297.82 480.07 C 1294.75 477.49, 1292.65 476.38, 1288.94 474.50 C 1285.23 472.62, 1283.05 471.99, 1279.26 470.68 C 1275.48 469.38, 1273.35 468.48, 1270.01 467.97 C 1266.67 467.45, 1264.99 467.56, 1262.56 468.11 C 1260.12 468.66, 1258.80 469.34, 1257.84 470.70 C 1256.88 472.05, 1256.93 473.47, 1257.74 474.87 C 1258.56 476.26, 1259.84 476.80, 1261.90 477.65 C 1263.96 478.51, 1265.17 478.55, 1268.03 479.14 C 1270.88 479.72, 1272.90 479.68, 1276.17 480.58 C 1279.44 481.48, 1281.37 482.14, 1284.37 483.63 C 1287.37 485.11, 1288.96 486.16, 1291.15 488.00 C 1293.34 489.83, 1294.07 490.95, 1295.32 492.81 C 1296.56 494.68, 1297.24 495.21, 1297.39 497.31 C 1297.53 499.42, 1297.08 500.79, 1296.03 503.36 C 1294.98 505.94, 1294.44 507.37, 1292.12 510.19 C 1289.79 513.01, 1287.91 514.87, 1284.40 517.48 C 1280.89 520.09, 1278.66 521.30, 1274.55 523.25 C 1270.45 525.19, 1268.08 526.17, 1263.89 527.21 C 1259.70 528.25, 1257.49 528.39, 1253.60 528.43 C 1249.71 528.46, 1247.46 528.21, 1244.43 527.40 C 1241.40 526.60, 1240.41 526.08, 1238.46 524.41 C 1236.51 522.73, 1235.87 521.57, 1234.70 519.01 C 1233.53 516.45, 1232.96 514.94, 1232.63 511.62 C 1232.30 508.31, 1232.41 506.18, 1233.04 502.45 C 1233.67 498.73, 1234.33 496.52, 1235.77 492.99 C 1237.20 489.47, 1238.24 487.65, 1240.21 484.81 C 1242.18 481.97, 1243.49 480.68, 1245.62 478.78 C 1247.76 476.88, 1249.21 476.51, 1250.89 475.30 C 1252.57 474.09, 1253.01 473.30, 1254.01 472.72 C 1255.01 472.15, 1255.32 472.31, 1255.91 472.43 C 1256.50 472.55, 1256.68 472.89, 1256.96 473.32 C 1257.24 473.76, 1256.85 474.18, 1257.32 474.61 C 1257.79 475.05, 1258.16 475.34, 1259.31 475.50 C 1260.46 475.66, 1261.35 475.82, 1263.05 475.41 C 1264.75 474.99, 1266.42 474.58, 1267.81 473.42" style="stroke: black; fill: black;"/><path d="M 1378.45,480.14 C 1379.87 478.87, 1380.32 477.25, 1380.20 475.13 C 1380.08 473.00, 1379.36 471.65, 1377.86 469.49 C 1376.36 467.34, 1375.25 466.08, 1372.72 464.36 C 1370.19 462.64, 1368.51 461.78, 1365.21 460.88 C 1361.91 459.98, 1360.01 459.63, 1356.22 459.85 C 1352.43 460.08, 1350.34 460.66, 1346.26 462.01 C 1342.18 463.36, 1339.99 464.33, 1335.81 466.60 C 1331.64 468.86, 1329.42 470.25, 1325.40 473.33 C 1321.38 476.41, 1319.11 478.20, 1315.70 482.01 C 1312.30 485.81, 1310.60 488.09, 1308.36 492.35 C 1306.11 496.62, 1305.36 499.01, 1304.47 503.33 C 1303.59 507.65, 1303.35 509.83, 1303.94 513.97 C 1304.54 518.11, 1305.22 520.57, 1307.46 524.03 C 1309.69 527.50, 1311.58 529.24, 1315.12 531.31 C 1318.66 533.37, 1320.80 533.80, 1325.16 534.38 C 1329.51 534.96, 1332.20 534.94, 1336.91 534.19 C 1341.63 533.43, 1344.17 532.61, 1348.72 530.61 C 1353.27 528.60, 1355.37 527.16, 1359.66 524.17 C 1363.95 521.19, 1366.22 519.35, 1370.17 515.67 C 1374.13 512.00, 1376.14 509.83, 1379.44 505.80 C 1382.74 501.77, 1384.18 499.26, 1386.67 495.53 C 1389.16 491.80, 1391.00 490.11, 1391.91 487.15 C 1392.83 484.19, 1392.33 482.45, 1391.25 480.75 C 1390.16 479.06, 1388.52 478.34, 1386.48 478.68 C 1384.44 479.01, 1382.18 480.03, 1381.04 482.44 C 1379.90 484.85, 1380.36 486.99, 1380.79 490.73 C 1381.21 494.47, 1382.04 496.93, 1383.17 501.13 C 1384.31 505.33, 1384.90 507.68, 1386.46 511.74 C 1388.02 515.79, 1388.85 517.80, 1390.98 521.40 C 1393.11 524.99, 1394.34 526.84, 1397.13 529.70 C 1399.91 532.56, 1401.56 533.94, 1404.89 535.71 C 1408.22 537.48, 1410.22 538.25, 1413.76 538.53 C 1417.30 538.80, 1419.60 538.27, 1422.58 537.08 C 1425.57 535.89, 1427.19 534.62, 1428.68 532.58 C 1430.18 530.53, 1430.51 528.69, 1430.07 526.86 C 1429.63 525.04, 1428.12 524.01, 1426.48 523.45 C 1424.84 522.88, 1423.56 523.53, 1421.86 524.04 C 1420.16 524.55, 1419.48 525.33, 1417.98 526.00 C 1416.48 526.67, 1416.00 527.41, 1414.38 527.40 C 1412.75 527.39, 1411.93 526.93, 1409.87 525.95 C 1407.80 524.96, 1406.22 524.36, 1404.04 522.48 C 1401.87 520.60, 1400.73 519.31, 1399.01 516.53 C 1397.29 513.76, 1396.49 512.05, 1395.44 508.61 C 1394.39 505.16, 1393.99 503.03, 1393.76 499.31 C 1393.54 495.60, 1394.25 493.31, 1394.31 490.03 C 1394.38 486.75, 1395.04 485.05, 1394.07 482.91 C 1393.09 480.77, 1391.27 480.00, 1389.45 479.33 C 1387.63 478.66, 1386.53 478.79, 1384.98 479.56 C 1383.42 480.33, 1382.82 480.83, 1381.68 483.19 C 1380.54 485.55, 1380.91 487.77, 1379.27 491.37 C 1377.64 494.96, 1376.32 497.37, 1373.51 501.17 C 1370.70 504.97, 1368.83 506.99, 1365.22 510.36 C 1361.62 513.73, 1359.40 515.45, 1355.49 518.02 C 1351.58 520.58, 1349.61 521.69, 1345.67 523.19 C 1341.72 524.69, 1339.58 525.13, 1335.75 525.52 C 1331.92 525.91, 1329.65 525.67, 1326.52 525.14 C 1323.38 524.62, 1322.26 524.18, 1320.09 522.88 C 1317.91 521.59, 1317.05 520.74, 1315.63 518.65 C 1314.21 516.57, 1313.55 515.22, 1312.99 512.46 C 1312.44 509.70, 1312.33 508.14, 1312.84 504.85 C 1313.34 501.57, 1313.78 499.54, 1315.52 496.02 C 1317.26 492.50, 1318.60 490.50, 1321.54 487.27 C 1324.47 484.03, 1326.56 482.41, 1330.20 479.86 C 1333.83 477.31, 1335.99 476.15, 1339.72 474.53 C 1343.45 472.90, 1345.56 472.34, 1348.84 471.73 C 1352.13 471.13, 1353.69 471.24, 1356.14 471.51 C 1358.59 471.77, 1359.45 472.31, 1361.10 473.07 C 1362.75 473.84, 1363.23 474.26, 1364.38 475.34 C 1365.54 476.42, 1365.82 477.48, 1366.89 478.47 C 1367.97 479.46, 1368.54 479.69, 1369.77 480.29 C 1371.01 480.89, 1371.33 481.51, 1373.07 481.48 C 1374.80 481.44, 1377.02 481.41, 1378.45 480.14" style="stroke: black; fill: black;"/><path d="M 1433.25,459.13 C 1431.48 460.29, 1430.58 462.36, 1430.08 465.13 C 1429.58 467.90, 1430.45 469.35, 1430.74 472.96 C 1431.03 476.58, 1431.15 478.99, 1431.51 483.19 C 1431.88 487.40, 1432.14 489.72, 1432.56 493.98 C 1432.98 498.25, 1433.31 500.51, 1433.63 504.51 C 1433.95 508.51, 1433.55 510.90, 1434.15 513.97 C 1434.75 517.04, 1435.15 518.36, 1436.63 519.84 C 1438.12 521.33, 1439.43 521.69, 1441.58 521.41 C 1443.74 521.12, 1445.99 520.71, 1447.40 518.42 C 1448.82 516.13, 1448.11 513.81, 1448.66 509.95 C 1449.21 506.10, 1449.04 503.57, 1450.14 499.15 C 1451.24 494.73, 1452.10 492.22, 1454.15 487.86 C 1456.20 483.50, 1457.65 481.34, 1460.38 477.34 C 1463.10 473.35, 1464.72 471.27, 1467.78 467.90 C 1470.83 464.54, 1472.31 462.88, 1475.67 460.53 C 1479.02 458.17, 1480.98 457.42, 1484.54 456.13 C 1488.09 454.84, 1490.12 454.41, 1493.45 454.09 C 1496.77 453.77, 1498.26 453.82, 1501.17 454.53 C 1504.07 455.23, 1505.45 455.90, 1507.96 457.63 C 1510.48 459.36, 1511.57 460.42, 1513.75 463.16 C 1515.93 465.91, 1517.08 467.59, 1518.85 471.37 C 1520.62 475.14, 1521.37 477.42, 1522.60 482.05 C 1523.82 486.68, 1524.28 489.49, 1524.98 494.52 C 1525.68 499.55, 1525.64 502.15, 1526.08 507.20 C 1526.53 512.24, 1526.85 515.02, 1527.22 519.76 C 1527.58 524.49, 1527.43 526.86, 1527.93 530.87 C 1528.43 534.89, 1528.48 537.02, 1529.71 539.83 C 1530.94 542.64, 1532.21 543.56, 1534.08 544.91 C 1535.95 546.25, 1537.48 546.58, 1539.06 546.54 C 1540.65 546.49, 1541.64 545.75, 1542.01 544.69 C 1542.38 543.62, 1541.26 542.05, 1540.92 541.20 C 1540.58 540.35, 1540.44 540.85, 1540.31 540.46 C 1540.18 540.06, 1540.46 540.13, 1540.28 539.23 C 1540.09 538.33, 1540.09 537.95, 1539.38 535.94 C 1538.68 533.94, 1537.67 532.62, 1536.76 529.21 C 1535.86 525.80, 1535.57 523.42, 1534.87 518.87 C 1534.18 514.33, 1533.82 511.55, 1533.27 506.49 C 1532.73 501.43, 1532.81 498.83, 1532.16 493.58 C 1531.51 488.33, 1531.18 485.33, 1530.01 480.23 C 1528.84 475.13, 1528.17 472.56, 1526.32 468.09 C 1524.46 463.61, 1523.37 461.44, 1520.74 457.85 C 1518.10 454.27, 1516.63 452.58, 1513.13 450.15 C 1509.63 447.72, 1507.36 446.65, 1503.22 445.71 C 1499.09 444.78, 1496.78 444.91, 1492.45 445.48 C 1488.12 446.05, 1485.82 446.78, 1481.57 448.55 C 1477.31 450.32, 1475.02 451.45, 1471.16 454.34 C 1467.31 457.22, 1465.67 459.21, 1462.31 462.98 C 1458.95 466.75, 1457.37 468.91, 1454.37 473.18 C 1451.37 477.46, 1449.86 479.75, 1447.31 484.36 C 1444.77 488.97, 1443.65 491.65, 1441.65 496.22 C 1439.65 500.80, 1438.63 503.34, 1437.33 507.23 C 1436.02 511.12, 1434.80 512.97, 1435.10 515.66 C 1435.40 518.35, 1436.94 519.90, 1438.82 520.67 C 1440.69 521.44, 1443.11 521.18, 1444.47 519.51 C 1445.82 517.84, 1445.89 515.59, 1445.58 512.33 C 1445.28 509.07, 1443.71 507.04, 1442.93 503.21 C 1442.16 499.38, 1442.00 497.27, 1441.69 493.19 C 1441.39 489.10, 1441.40 486.89, 1441.41 482.77 C 1441.42 478.66, 1441.70 476.15, 1441.75 472.60 C 1441.80 469.05, 1442.22 467.65, 1441.66 465.01 C 1441.10 462.36, 1440.64 460.54, 1438.95 459.36 C 1437.27 458.19, 1435.03 457.98, 1433.25 459.13" style="stroke: black; fill: black;"/></svg>