<svg xmlns="http://www.w3.org/2000/svg" id="canvas" viewBox="274.668 341.160 1145.320 258.887"><path d="M 410.42,350.28 C 409.98 349.11, 409.16 347.96, 407.00 346.83 C 404.84 345.70, 403.23 345.14, 399.61 344.65 C 395.99 344.16, 393.63 343.98, 388.91 344.38 C 384.19 344.78, 381.53 345.23, 376.02 346.64 C 370.51 348.04, 367.31 349.01, 361.34 351.41 C 355.38 353.80, 352.04 355.29, 346.17 358.61 C 340.30 361.94, 337.15 363.97, 332.01 368.01 C 326.86 372.04, 324.31 374.38, 320.47 378.79 C 316.63 383.20, 314.86 385.52, 312.79 390.07 C 310.72 394.61, 310.07 397.05, 310.12 401.52 C 310.17 405.99, 310.86 408.33, 313.04 412.43 C 315.23 416.54, 317.01 418.43, 321.04 422.03 C 325.06 425.62, 327.74 427.19, 333.16 430.40 C 338.57 433.61, 341.87 435.00, 348.12 438.06 C 354.37 441.13, 357.92 442.54, 364.39 445.72 C 370.86 448.89, 374.35 450.48, 380.47 453.95 C 386.60 457.42, 389.75 459.22, 395.02 463.05 C 400.28 466.89, 402.81 468.94, 406.80 473.11 C 410.79 477.28, 412.52 479.53, 414.98 483.90 C 417.45 488.27, 418.31 490.56, 419.14 494.97 C 419.98 499.37, 419.95 501.58, 419.15 505.91 C 418.36 510.25, 417.56 512.46, 415.16 516.65 C 412.76 520.84, 411.10 523.00, 407.17 526.88 C 403.24 530.75, 400.75 532.68, 395.52 536.02 C 390.28 539.37, 387.24 540.95, 381.00 543.60 C 374.75 546.24, 371.18 547.39, 364.29 549.24 C 357.40 551.09, 353.62 551.83, 346.56 552.84 C 339.50 553.85, 335.72 554.14, 328.97 554.29 C 322.23 554.44, 318.78 554.30, 312.83 553.60 C 306.89 552.90, 303.93 552.28, 299.27 550.79 C 294.60 549.30, 292.54 548.29, 289.51 546.15 C 286.48 544.00, 285.44 542.82, 284.13 540.07 C 282.81 537.32, 282.89 535.44, 282.93 532.40 C 282.97 529.36, 283.89 527.66, 284.34 524.86 C 284.78 522.07, 285.51 519.91, 285.16 518.44 C 284.81 516.97, 283.83 516.49, 282.58 517.51 C 281.33 518.53, 279.88 520.53, 278.91 523.54 C 277.94 526.55, 277.48 528.84, 277.74 532.57 C 278.00 536.29, 278.28 538.80, 280.21 542.15 C 282.13 545.50, 283.73 546.96, 287.35 549.33 C 290.97 551.70, 293.26 552.55, 298.30 553.99 C 303.33 555.43, 306.37 555.93, 312.52 556.54 C 318.67 557.14, 322.16 557.23, 329.05 557.02 C 335.93 556.80, 339.75 556.50, 346.93 555.46 C 354.12 554.43, 357.95 553.69, 364.98 551.84 C 372.01 549.99, 375.65 548.85, 382.09 546.21 C 388.52 543.56, 391.67 542.01, 397.15 538.62 C 402.63 535.23, 405.28 533.31, 409.50 529.27 C 413.72 525.23, 415.60 522.97, 418.24 518.43 C 420.89 513.89, 421.86 511.39, 422.72 506.56 C 423.59 501.73, 423.57 499.15, 422.58 494.29 C 421.59 489.44, 420.52 486.93, 417.79 482.28 C 415.06 477.63, 413.16 475.34, 408.93 471.04 C 404.70 466.75, 402.07 464.69, 396.64 460.81 C 391.21 456.92, 388.00 455.12, 381.79 451.62 C 375.58 448.11, 372.08 446.51, 365.60 443.28 C 359.13 440.05, 355.58 438.59, 349.42 435.46 C 343.26 432.33, 340.02 430.86, 334.83 427.64 C 329.63 424.42, 327.13 422.78, 323.44 419.38 C 319.75 415.98, 318.30 414.24, 316.38 410.65 C 314.46 407.07, 313.92 405.29, 313.83 401.46 C 313.75 397.62, 314.13 395.59, 315.93 391.47 C 317.74 387.35, 319.28 385.07, 322.86 380.85 C 326.44 376.62, 328.89 374.27, 333.85 370.35 C 338.81 366.43, 341.91 364.42, 347.64 361.23 C 353.37 358.04, 356.67 356.60, 362.51 354.41 C 368.35 352.22, 371.54 351.35, 376.85 350.27 C 382.17 349.19, 384.73 348.98, 389.09 349.03 C 393.44 349.08, 395.44 349.89, 398.63 350.54 C 401.81 351.18, 402.91 351.84, 405.02 352.27 C 407.14 352.70, 408.13 353.07, 409.21 352.67 C 410.29 352.27, 410.86 351.45, 410.42 350.28" style="stroke: black; fill: black;"/><path d="M 467.43,347.73 C 466.76 348.52, 466.48 349.06, 466.38 351.39 C 466.28 353.72, 466.70 355.12, 466.92 359.37 C 467.14 363.62, 467.44 366.41, 467.48 372.64 C 467.52 378.88, 467.44 382.75, 467.13 390.56 C 466.81 398.37, 466.51 402.82, 465.90 411.70 C 465.29 420.58, 464.82 425.48, 464.10 434.95 C 463.37 444.42, 462.96 449.51, 462.30 459.04 C 461.63 468.56, 461.26 473.51, 460.77 482.59 C 460.28 491.66, 460.05 496.25, 459.83 504.41 C 459.61 512.57, 459.65 516.54, 459.67 523.37 C 459.69 530.20, 459.90 533.56, 459.95 538.56 C 460.00 543.57, 459.65 545.47, 459.93 548.40 C 460.20 551.34, 460.84 551.98, 461.33 553.23 C 461.83 554.49, 461.99 554.42, 462.39 554.68 C 462.79 554.95, 463.00 554.92, 463.32 554.57 C 463.65 554.23, 463.78 554.26, 464.02 552.96 C 464.25 551.66, 464.65 550.97, 464.49 548.06 C 464.33 545.15, 463.66 543.35, 463.21 538.40 C 462.76 533.45, 462.48 530.11, 462.25 523.32 C 462.02 516.54, 461.94 512.58, 462.05 504.46 C 462.17 496.33, 462.37 491.75, 462.83 482.70 C 463.28 473.64, 463.64 468.69, 464.31 459.18 C 464.98 449.66, 465.40 444.58, 466.18 435.12 C 466.95 425.66, 467.46 420.75, 468.20 411.87 C 468.93 402.99, 469.29 398.54, 469.86 390.72 C 470.43 382.89, 470.66 379.02, 471.05 372.75 C 471.45 366.47, 471.70 363.67, 471.84 359.33 C 471.97 354.98, 472.17 353.41, 471.75 351.03 C 471.33 348.65, 470.61 348.09, 469.74 347.43 C 468.88 346.77, 468.10 346.94, 467.43 347.73" style="stroke: black; fill: black;"/><path d="M 421.72,475.40 C 422.46 476.02, 422.92 476.14, 424.87 476.22 C 426.83 476.29, 427.98 476.12, 431.49 475.77 C 434.99 475.43, 437.36 474.90, 442.40 474.51 C 447.44 474.13, 450.62 474.09, 456.70 473.86 C 462.79 473.63, 466.29 473.54, 472.84 473.37 C 479.39 473.20, 482.94 473.15, 489.45 472.99 C 495.95 472.82, 499.26 472.79, 505.37 472.56 C 511.47 472.32, 514.53 472.20, 519.95 471.81 C 525.37 471.43, 527.92 471.26, 532.47 470.65 C 537.01 470.03, 539.12 469.75, 542.68 468.74 C 546.23 467.73, 547.84 467.22, 550.24 465.60 C 552.65 463.97, 553.50 462.87, 554.69 460.62 C 555.89 458.37, 556.31 456.94, 556.23 454.35 C 556.16 451.77, 555.72 450.17, 554.32 447.68 C 552.92 445.19, 551.77 443.78, 549.23 441.89 C 546.69 440.00, 544.97 439.14, 541.64 438.24 C 538.32 437.34, 536.31 437.08, 532.61 437.39 C 528.90 437.70, 526.82 438.10, 523.11 439.78 C 519.40 441.45, 517.43 442.68, 514.04 445.76 C 510.65 448.85, 508.94 450.85, 506.15 455.19 C 503.35 459.52, 502.00 462.18, 500.07 467.43 C 498.13 472.68, 497.30 475.74, 496.47 481.44 C 495.65 487.14, 495.44 490.28, 495.94 495.92 C 496.43 501.56, 497.05 504.49, 498.96 509.64 C 500.87 514.78, 502.26 517.32, 505.50 521.65 C 508.74 525.97, 510.82 528.01, 515.18 531.26 C 519.54 534.50, 522.14 535.90, 527.30 537.86 C 532.46 539.82, 535.35 540.51, 540.98 541.07 C 546.61 541.63, 549.68 541.55, 555.44 540.66 C 561.20 539.77, 564.19 538.90, 569.80 536.61 C 575.41 534.33, 578.29 532.81, 583.49 529.23 C 588.69 525.66, 591.30 523.49, 595.80 518.75 C 600.29 514.02, 602.37 511.23, 605.97 505.57 C 609.56 499.91, 611.12 496.74, 613.77 490.45 C 616.43 484.16, 617.47 480.76, 619.24 474.12 C 621.01 467.48, 621.60 463.98, 622.61 457.25 C 623.63 450.51, 623.88 447.05, 624.31 440.44 C 624.74 433.83, 624.75 430.49, 624.77 424.20 C 624.79 417.90, 624.62 414.77, 624.41 408.97 C 624.21 403.18, 624.01 400.33, 623.73 395.22 C 623.46 390.12, 623.29 387.71, 623.04 383.45 C 622.80 379.18, 622.79 377.19, 622.51 373.89 C 622.24 370.59, 622.34 369.04, 621.65 366.95 C 620.95 364.86, 620.24 363.81, 619.06 363.44 C 617.88 363.08, 616.54 363.17, 615.76 365.12 C 614.98 367.06, 615.20 368.69, 615.15 373.17 C 615.09 377.65, 615.39 380.71, 615.48 387.51 C 615.57 394.32, 615.55 398.65, 615.58 407.20 C 615.60 415.76, 615.56 420.69, 615.60 430.30 C 615.64 439.91, 615.68 445.11, 615.79 455.25 C 615.89 465.38, 615.99 470.66, 616.13 480.97 C 616.28 491.28, 616.36 496.70, 616.50 506.80 C 616.64 516.89, 616.70 522.09, 616.83 531.42 C 616.95 540.75, 617.05 545.36, 617.13 553.44 C 617.21 561.52, 617.27 565.41, 617.24 571.83 C 617.21 578.24, 617.01 581.08, 616.98 585.50 C 616.95 589.92, 616.90 591.73, 617.08 593.95 C 617.27 596.16, 617.54 596.02, 617.91 596.57 C 618.29 597.13, 618.45 597.22, 618.96 596.71 C 619.48 596.20, 620.17 596.29, 620.47 594.04 C 620.78 591.79, 620.63 589.92, 620.51 585.46 C 620.39 581.01, 620.11 578.20, 619.88 571.78 C 619.64 565.37, 619.55 561.48, 619.33 553.40 C 619.12 545.32, 618.99 540.71, 618.80 531.39 C 618.61 522.06, 618.53 516.86, 618.37 506.77 C 618.20 496.68, 618.12 491.25, 617.99 480.94 C 617.86 470.63, 617.77 465.36, 617.72 455.23 C 617.67 445.11, 617.65 439.90, 617.74 430.30 C 617.82 420.70, 617.90 415.78, 618.13 407.24 C 618.37 398.69, 618.55 394.36, 618.93 387.59 C 619.31 380.81, 619.74 377.76, 620.02 373.35 C 620.29 368.95, 620.71 367.42, 620.30 365.56 C 619.89 363.69, 618.72 363.60, 617.96 364.03 C 617.20 364.45, 616.61 365.59, 616.52 367.69 C 616.42 369.78, 617.00 371.26, 617.50 374.49 C 618.00 377.72, 618.47 379.63, 619.03 383.82 C 619.58 388.02, 619.82 390.41, 620.27 395.47 C 620.72 400.53, 620.97 403.37, 621.29 409.11 C 621.61 414.86, 621.80 417.97, 621.85 424.20 C 621.89 430.43, 621.91 433.73, 621.52 440.26 C 621.13 446.79, 620.88 450.21, 619.90 456.84 C 618.91 463.47, 618.33 466.91, 616.60 473.41 C 614.86 479.92, 613.82 483.25, 611.22 489.37 C 608.62 495.50, 607.09 498.57, 603.58 504.05 C 600.07 509.52, 598.04 512.20, 593.68 516.73 C 589.32 521.27, 586.79 523.34, 581.78 526.74 C 576.77 530.13, 573.99 531.56, 568.63 533.70 C 563.26 535.84, 560.41 536.63, 554.95 537.44 C 549.49 538.25, 546.61 538.29, 541.32 537.74 C 536.04 537.18, 533.33 536.51, 528.52 534.66 C 523.70 532.82, 521.29 531.51, 517.23 528.50 C 513.18 525.48, 511.25 523.60, 508.23 519.59 C 505.21 515.59, 503.91 513.25, 502.13 508.46 C 500.34 503.67, 499.75 500.93, 499.30 495.63 C 498.85 490.33, 499.05 487.33, 499.88 481.95 C 500.72 476.57, 501.56 473.63, 503.47 468.71 C 505.38 463.80, 506.75 461.31, 509.45 457.38 C 512.14 453.46, 513.83 451.70, 516.95 449.10 C 520.07 446.50, 521.85 445.60, 525.04 444.39 C 528.23 443.17, 529.94 443.04, 532.88 443.02 C 535.83 443.01, 537.33 443.43, 539.77 444.31 C 542.21 445.19, 543.27 446.05, 545.08 447.42 C 546.89 448.79, 547.68 449.68, 548.81 451.18 C 549.94 452.67, 550.40 453.45, 550.71 454.88 C 551.02 456.31, 551.03 457.04, 550.36 458.33 C 549.69 459.61, 549.18 460.10, 547.36 461.30 C 545.55 462.51, 544.38 463.24, 541.28 464.36 C 538.17 465.47, 536.18 466.06, 531.86 466.89 C 527.54 467.72, 525.00 467.99, 519.67 468.52 C 514.35 469.04, 511.29 469.22, 505.23 469.52 C 499.17 469.82, 495.87 469.87, 489.38 470.02 C 482.89 470.17, 479.33 470.20, 472.78 470.26 C 466.24 470.32, 462.75 470.36, 456.65 470.32 C 450.55 470.28, 447.39 470.15, 442.28 470.05 C 437.16 469.95, 434.71 469.65, 431.07 469.81 C 427.43 469.97, 426.05 470.20, 424.07 470.86 C 422.10 471.52, 421.64 472.21, 421.17 473.12 C 420.70 474.02, 420.98 474.78, 421.72 475.40" style="stroke: black; fill: black;"/><path d="M 586.68,501.02 C 587.85 501.32, 588.89 501.14, 591.31 500.28 C 593.72 499.43, 594.99 498.32, 598.73 496.75 C 602.48 495.18, 604.94 494.06, 610.05 492.41 C 615.15 490.77, 618.22 490.03, 624.25 488.53 C 630.28 487.03, 633.69 486.31, 640.20 484.93 C 646.71 483.55, 650.25 482.86, 656.80 481.63 C 663.36 480.41, 666.74 479.86, 672.98 478.80 C 679.22 477.73, 682.33 477.28, 688.00 476.29 C 693.66 475.30, 696.40 474.83, 701.31 473.86 C 706.23 472.89, 708.52 472.46, 712.56 471.45 C 716.59 470.45, 718.50 470.18, 721.48 468.82 C 724.45 467.47, 725.75 466.61, 727.43 464.69 C 729.12 462.78, 729.70 461.54, 729.91 459.25 C 730.12 456.95, 729.89 455.48, 728.49 453.23 C 727.10 450.99, 725.85 449.57, 722.94 448.03 C 720.03 446.49, 717.91 446.04, 713.94 445.55 C 709.97 445.07, 707.63 444.94, 703.09 445.59 C 698.54 446.25, 695.96 446.79, 691.21 448.82 C 686.46 450.85, 683.91 452.26, 679.33 455.73 C 674.74 459.20, 672.31 461.45, 668.28 466.15 C 664.25 470.85, 662.24 473.74, 659.18 479.23 C 656.11 484.72, 654.76 487.93, 652.96 493.61 C 651.16 499.28, 650.51 502.33, 650.18 507.62 C 649.84 512.92, 650.12 515.60, 651.28 520.08 C 652.43 524.56, 653.46 526.71, 655.95 530.03 C 658.44 533.35, 660.16 534.89, 663.72 536.68 C 667.28 538.48, 669.58 538.98, 673.77 539.01 C 677.96 539.04, 680.32 538.56, 684.67 536.83 C 689.02 535.10, 691.30 533.68, 695.53 530.36 C 699.76 527.04, 701.93 524.81, 705.81 520.22 C 709.69 515.62, 711.62 512.79, 714.93 507.38 C 718.23 501.97, 719.82 498.75, 722.33 493.16 C 724.85 487.57, 725.91 484.41, 727.51 479.42 C 729.11 474.44, 730.03 471.62, 730.35 468.24 C 730.67 464.86, 730.01 463.26, 729.11 462.52 C 728.21 461.78, 726.70 462.34, 725.85 464.54 C 725.00 466.73, 725.00 468.96, 724.86 473.49 C 724.72 478.02, 724.89 481.43, 725.16 487.19 C 725.43 492.95, 725.67 496.51, 726.21 502.30 C 726.76 508.08, 727.05 511.05, 727.88 516.13 C 728.70 521.21, 729.18 523.62, 730.35 527.70 C 731.51 531.79, 731.99 533.74, 733.71 536.55 C 735.42 539.36, 736.59 540.51, 738.90 541.74 C 741.22 542.98, 742.72 543.24, 745.28 542.72 C 747.85 542.19, 749.48 541.53, 751.72 539.13 C 753.96 536.73, 754.63 534.71, 756.48 530.70 C 758.33 526.70, 759.19 524.21, 760.97 519.11 C 762.75 514.00, 763.68 510.90, 765.39 505.19 C 767.11 499.49, 767.92 496.20, 769.55 490.57 C 771.17 484.94, 771.95 481.90, 773.51 477.05 C 775.07 472.20, 776.28 469.58, 777.35 466.33 C 778.41 463.08, 778.65 461.72, 778.85 460.82 C 779.05 459.92, 778.32 460.20, 778.34 461.83 C 778.36 463.46, 778.64 465.13, 778.96 468.97 C 779.29 472.81, 779.69 475.78, 779.97 481.02 C 780.24 486.25, 780.32 489.60, 780.35 495.16 C 780.37 500.71, 780.29 503.81, 780.10 508.79 C 779.91 513.77, 779.46 516.30, 779.39 520.06 C 779.33 523.81, 779.10 525.54, 779.78 527.56 C 780.47 529.58, 781.41 530.29, 782.81 530.16 C 784.20 530.03, 785.55 529.46, 786.75 526.91 C 787.96 524.36, 787.74 522.00, 788.83 517.41 C 789.91 512.82, 790.46 509.64, 792.19 503.95 C 793.91 498.27, 794.99 494.80, 797.45 488.98 C 799.92 483.16, 801.46 480.03, 804.51 474.86 C 807.56 469.69, 809.30 467.18, 812.71 463.13 C 816.12 459.08, 817.99 457.28, 821.54 454.59 C 825.09 451.89, 827.02 450.88, 830.45 449.64 C 833.88 448.40, 835.56 448.19, 838.69 448.39 C 841.82 448.59, 843.31 449.01, 846.11 450.64 C 848.92 452.27, 850.36 453.43, 852.73 456.55 C 855.10 459.67, 856.25 461.75, 857.96 466.24 C 859.67 470.74, 860.36 473.55, 861.28 479.03 C 862.21 484.50, 862.39 487.73, 862.58 493.60 C 862.77 499.47, 862.55 502.73, 862.24 508.38 C 861.94 514.04, 861.50 516.95, 861.06 521.87 C 860.63 526.79, 860.29 529.22, 860.06 533.00 C 859.83 536.78, 859.68 538.38, 859.90 540.77 C 860.12 543.17, 860.49 543.82, 861.18 544.98 C 861.86 546.13, 862.61 546.36, 863.33 546.55 C 864.05 546.74, 864.62 546.28, 864.77 545.93 C 864.93 545.58, 864.22 544.98, 864.09 544.81 C 863.95 544.64, 864.01 545.21, 864.11 545.07 C 864.20 544.93, 864.41 545.03, 864.58 544.12 C 864.74 543.21, 864.91 542.73, 864.91 540.53 C 864.91 538.33, 864.59 536.80, 864.56 533.12 C 864.53 529.44, 864.55 527.03, 864.77 522.11 C 864.98 517.20, 865.39 514.27, 865.62 508.54 C 865.86 502.82, 866.10 499.52, 865.94 493.50 C 865.77 487.49, 865.65 484.19, 864.79 478.47 C 863.93 472.75, 863.36 469.80, 861.65 464.90 C 859.93 460.00, 858.86 457.61, 856.22 453.96 C 853.57 450.32, 851.88 448.69, 848.42 446.68 C 844.96 444.67, 842.82 444.08, 838.93 443.90 C 835.04 443.73, 832.91 444.24, 828.98 445.81 C 825.06 447.37, 823.05 448.68, 819.29 451.72 C 815.53 454.77, 813.67 456.73, 810.17 461.04 C 806.68 465.34, 804.95 467.93, 801.80 473.26 C 798.66 478.59, 797.10 481.78, 794.45 487.67 C 791.79 493.56, 790.61 497.05, 788.52 502.72 C 786.43 508.39, 785.50 511.54, 784.00 516.03 C 782.50 520.52, 781.40 522.54, 781.03 525.17 C 780.66 527.80, 781.59 528.76, 782.16 529.17 C 782.72 529.59, 783.48 529.06, 783.87 527.25 C 784.26 525.44, 784.08 523.79, 784.11 520.12 C 784.14 516.44, 783.99 513.86, 784.02 508.87 C 784.04 503.89, 784.13 500.78, 784.24 495.19 C 784.34 489.59, 784.52 486.26, 784.53 480.90 C 784.54 475.54, 784.80 472.51, 784.28 468.40 C 783.76 464.30, 783.37 462.26, 781.94 460.35 C 780.51 458.45, 778.92 458.02, 777.13 458.88 C 775.35 459.75, 774.45 461.27, 773.00 464.70 C 771.56 468.12, 771.28 471.00, 769.93 475.99 C 768.58 480.98, 767.85 484.01, 766.27 489.64 C 764.68 495.27, 763.82 498.53, 762.01 504.14 C 760.19 509.74, 759.17 512.81, 757.17 517.67 C 755.18 522.52, 754.05 524.93, 752.04 528.42 C 750.04 531.91, 748.76 533.14, 747.15 535.11 C 745.54 537.08, 745.19 537.71, 744.01 538.26 C 742.82 538.81, 742.42 538.74, 741.23 537.87 C 740.05 537.00, 739.45 536.18, 738.07 533.90 C 736.68 531.61, 735.62 530.12, 734.30 526.44 C 732.98 522.76, 732.37 520.40, 731.49 515.51 C 730.60 510.62, 730.27 507.67, 729.87 501.99 C 729.46 496.31, 729.44 492.76, 729.46 487.09 C 729.48 481.43, 729.81 478.09, 729.96 473.66 C 730.12 469.24, 730.66 467.20, 730.25 464.97 C 729.84 462.74, 728.81 462.02, 727.90 462.52 C 727.00 463.02, 726.52 464.28, 725.73 467.46 C 724.95 470.63, 725.24 473.51, 723.97 478.39 C 722.70 483.27, 721.73 486.39, 719.37 491.86 C 717.02 497.32, 715.43 500.48, 712.20 505.71 C 708.97 510.94, 707.02 513.67, 703.23 518.00 C 699.44 522.34, 697.26 524.39, 693.24 527.38 C 689.23 530.36, 687.06 531.49, 683.17 532.92 C 679.29 534.35, 677.31 534.56, 673.82 534.51 C 670.33 534.45, 668.63 534.05, 665.72 532.64 C 662.82 531.23, 661.45 530.17, 659.29 527.46 C 657.14 524.75, 656.08 523.01, 654.94 519.08 C 653.80 515.16, 653.39 512.72, 653.61 507.81 C 653.82 502.91, 654.36 499.97, 656.03 494.56 C 657.69 489.16, 658.99 486.02, 661.93 480.77 C 664.87 475.51, 666.84 472.73, 670.73 468.28 C 674.63 463.84, 677.02 461.72, 681.41 458.56 C 685.80 455.39, 688.25 454.15, 692.69 452.48 C 697.12 450.81, 699.53 450.47, 703.58 450.19 C 707.64 449.91, 709.72 450.31, 712.96 451.10 C 716.19 451.88, 717.55 452.99, 719.78 454.12 C 722.00 455.25, 722.91 455.79, 724.07 456.76 C 725.23 457.72, 725.59 458.04, 725.58 458.94 C 725.57 459.85, 725.26 460.23, 724.00 461.27 C 722.74 462.31, 721.80 462.91, 719.28 464.15 C 716.75 465.39, 715.14 466.21, 711.39 467.46 C 707.65 468.72, 705.36 469.27, 700.56 470.42 C 695.77 471.57, 693.05 472.11, 687.43 473.21 C 681.81 474.31, 678.70 474.79, 672.47 475.91 C 666.24 477.03, 662.85 477.58, 656.28 478.80 C 649.70 480.02, 646.15 480.70, 639.60 482.00 C 633.04 483.29, 629.63 483.97, 623.50 485.28 C 617.36 486.58, 614.24 487.17, 608.93 488.50 C 603.62 489.83, 600.95 490.61, 596.94 491.93 C 592.92 493.25, 591.16 493.74, 588.86 495.11 C 586.56 496.48, 585.88 497.59, 585.45 498.77 C 585.01 499.95, 585.51 500.72, 586.68 501.02" style="stroke: black; fill: black;"/><path d="M 1062.41,364.27 C 1061.81 364.99, 1061.64 365.41, 1061.64 367.30 C 1061.64 369.19, 1061.93 370.14, 1062.39 373.71 C 1062.86 377.28, 1063.53 379.65, 1063.98 385.16 C 1064.44 390.67, 1064.59 394.11, 1064.67 401.28 C 1064.75 408.44, 1064.64 412.63, 1064.37 420.99 C 1064.10 429.35, 1063.81 434.03, 1063.32 443.07 C 1062.83 452.12, 1062.44 457.05, 1061.90 466.21 C 1061.36 475.37, 1061.09 480.18, 1060.62 488.87 C 1060.16 497.56, 1059.93 501.93, 1059.58 509.67 C 1059.23 517.41, 1059.09 521.15, 1058.86 527.57 C 1058.63 533.99, 1058.56 536.87, 1058.44 541.78 C 1058.33 546.69, 1058.01 548.90, 1058.28 552.12 C 1058.56 555.33, 1059.17 556.27, 1059.81 557.83 C 1060.45 559.40, 1060.92 559.58, 1061.50 559.92 C 1062.07 560.27, 1062.40 560.09, 1062.70 559.54 C 1062.99 559.00, 1062.95 558.77, 1062.99 557.21 C 1063.02 555.65, 1063.09 554.84, 1062.85 551.75 C 1062.61 548.65, 1062.05 546.55, 1061.79 541.73 C 1061.53 536.90, 1061.52 534.01, 1061.54 527.62 C 1061.57 521.23, 1061.66 517.49, 1061.91 509.76 C 1062.15 502.04, 1062.36 497.66, 1062.78 488.98 C 1063.20 480.29, 1063.47 475.49, 1064.02 466.34 C 1064.57 457.18, 1064.96 452.25, 1065.53 443.20 C 1066.09 434.15, 1066.41 429.47, 1066.84 421.09 C 1067.27 412.72, 1067.45 408.52, 1067.68 401.31 C 1067.91 394.09, 1067.92 390.65, 1068.00 385.02 C 1068.08 379.39, 1068.31 376.88, 1068.07 373.15 C 1067.82 369.42, 1067.45 368.26, 1066.77 366.37 C 1066.08 364.49, 1065.52 364.16, 1064.64 363.74 C 1063.77 363.32, 1063.01 363.56, 1062.41 364.27" style="stroke: black; fill: black;"/><path d="M 1148.45,465.72 C 1148.48 464.57, 1148.01 463.52, 1146.75 462.23 C 1145.49 460.95, 1144.46 460.06, 1142.16 459.29 C 1139.87 458.52, 1138.18 457.97, 1135.25 458.39 C 1132.33 458.81, 1130.62 459.43, 1127.53 461.38 C 1124.44 463.34, 1122.93 464.76, 1119.81 468.17 C 1116.69 471.58, 1114.93 473.73, 1111.95 478.45 C 1108.97 483.16, 1107.29 486.09, 1104.92 491.75 C 1102.55 497.41, 1101.35 500.73, 1100.09 506.73 C 1098.82 512.73, 1098.36 516.06, 1098.60 521.75 C 1098.84 527.44, 1099.36 530.36, 1101.29 535.20 C 1103.22 540.03, 1104.77 542.37, 1108.26 545.93 C 1111.75 549.49, 1114.07 550.97, 1118.74 552.99 C 1123.41 555.01, 1126.23 555.63, 1131.59 556.02 C 1136.96 556.42, 1140.05 556.24, 1145.59 554.98 C 1151.13 553.73, 1154.10 552.59, 1159.29 549.76 C 1164.48 546.93, 1167.12 544.99, 1171.53 540.82 C 1175.94 536.65, 1178.10 534.07, 1181.33 528.91 C 1184.57 523.75, 1185.93 520.69, 1187.69 515.04 C 1189.45 509.39, 1189.95 506.24, 1190.14 500.64 C 1190.33 495.04, 1190.06 492.09, 1188.65 487.04 C 1187.25 481.99, 1185.98 479.46, 1183.10 475.40 C 1180.22 471.33, 1178.13 469.45, 1174.25 466.73 C 1170.37 464.02, 1167.98 463.06, 1163.68 461.82 C 1159.39 460.57, 1156.91 460.38, 1152.77 460.51 C 1148.63 460.64, 1146.32 461.14, 1142.96 462.47 C 1139.61 463.79, 1137.97 465.21, 1135.99 467.13 C 1134.02 469.04, 1133.64 470.38, 1133.08 472.04 C 1132.53 473.71, 1132.85 474.67, 1133.22 475.44 C 1133.58 476.22, 1134.25 476.19, 1134.91 475.93 C 1135.57 475.67, 1135.54 475.03, 1136.54 474.14 C 1137.53 473.26, 1138.16 472.87, 1139.88 471.52 C 1141.59 470.18, 1142.48 468.68, 1145.11 467.40 C 1147.74 466.12, 1149.54 465.44, 1153.03 465.14 C 1156.52 464.84, 1158.77 464.93, 1162.57 465.90 C 1166.36 466.87, 1168.52 467.65, 1172.03 469.99 C 1175.54 472.32, 1177.45 473.96, 1180.10 477.56 C 1182.76 481.16, 1183.97 483.40, 1185.31 487.99 C 1186.66 492.59, 1186.96 495.32, 1186.83 500.54 C 1186.69 505.76, 1186.27 508.76, 1184.64 514.10 C 1183.00 519.43, 1181.72 522.35, 1178.66 527.24 C 1175.60 532.12, 1173.54 534.57, 1169.35 538.50 C 1165.16 542.43, 1162.63 544.25, 1157.73 546.87 C 1152.82 549.50, 1150.02 550.51, 1144.84 551.63 C 1139.67 552.75, 1136.80 552.86, 1131.87 552.46 C 1126.94 552.07, 1124.39 551.47, 1120.18 549.66 C 1115.96 547.85, 1113.94 546.56, 1110.80 543.42 C 1107.65 540.27, 1106.24 538.28, 1104.46 533.92 C 1102.68 529.56, 1102.12 526.91, 1101.88 521.61 C 1101.65 516.31, 1102.04 513.12, 1103.28 507.42 C 1104.52 501.72, 1105.70 498.48, 1108.08 493.11 C 1110.46 487.75, 1112.18 484.93, 1115.19 480.59 C 1118.20 476.26, 1120.08 474.28, 1123.13 471.45 C 1126.18 468.63, 1127.88 467.77, 1130.45 466.49 C 1133.02 465.21, 1134.08 465.17, 1135.99 465.05 C 1137.90 464.94, 1138.53 465.43, 1140.00 465.90 C 1141.48 466.36, 1142.04 466.97, 1143.37 467.38 C 1144.70 467.79, 1145.61 468.28, 1146.63 467.95 C 1147.65 467.62, 1148.43 466.86, 1148.45 465.72" style="stroke: black; fill: black;"/><path d="M 1267.43,472.58 C 1267.62 471.42, 1267.35 470.20, 1266.19 468.50 C 1265.03 466.80, 1264.10 465.53, 1261.63 464.10 C 1259.17 462.67, 1257.31 461.78, 1253.88 461.35 C 1250.45 460.92, 1248.55 461.13, 1244.48 461.96 C 1240.41 462.79, 1238.11 463.41, 1233.53 465.50 C 1228.95 467.60, 1226.34 468.97, 1221.61 472.44 C 1216.88 475.91, 1214.26 478.17, 1209.87 482.87 C 1205.49 487.57, 1203.18 490.45, 1199.70 495.92 C 1196.21 501.38, 1194.58 504.52, 1192.45 510.20 C 1190.33 515.89, 1189.58 519.02, 1189.07 524.35 C 1188.56 529.68, 1188.75 532.37, 1189.92 536.86 C 1191.09 541.35, 1192.20 543.51, 1194.90 546.79 C 1197.60 550.08, 1199.55 551.59, 1203.43 553.30 C 1207.31 555.00, 1209.76 555.43, 1214.31 555.32 C 1218.86 555.22, 1221.42 554.65, 1226.18 552.77 C 1230.93 550.90, 1233.49 549.46, 1238.10 545.97 C 1242.70 542.47, 1245.05 540.10, 1249.20 535.30 C 1253.35 530.50, 1255.37 527.58, 1258.84 521.96 C 1262.31 516.35, 1263.92 513.02, 1266.54 507.23 C 1269.15 501.45, 1270.23 498.32, 1271.90 493.04 C 1273.57 487.77, 1274.37 484.75, 1274.88 480.88 C 1275.38 477.01, 1275.20 475.13, 1274.42 473.68 C 1273.65 472.24, 1272.07 472.18, 1270.98 473.66 C 1269.89 475.15, 1269.45 477.02, 1268.98 481.12 C 1268.52 485.22, 1268.65 488.44, 1268.65 494.17 C 1268.66 499.90, 1268.78 503.59, 1269.01 509.75 C 1269.25 515.91, 1269.36 519.22, 1269.83 524.96 C 1270.30 530.71, 1270.60 533.56, 1271.36 538.48 C 1272.11 543.39, 1272.52 545.68, 1273.61 549.55 C 1274.70 553.42, 1275.13 555.32, 1276.82 557.82 C 1278.50 560.33, 1279.78 561.24, 1282.04 562.09 C 1284.30 562.93, 1285.72 562.97, 1288.10 562.05 C 1290.49 561.14, 1291.90 560.25, 1293.95 557.50 C 1296.01 554.76, 1296.61 552.63, 1298.38 548.34 C 1300.16 544.04, 1301.01 541.38, 1302.84 536.03 C 1304.66 530.68, 1305.62 527.53, 1307.50 521.59 C 1309.39 515.65, 1310.38 512.28, 1312.26 506.34 C 1314.13 500.40, 1315.08 497.22, 1316.88 491.90 C 1318.69 486.59, 1319.59 483.83, 1321.29 479.77 C 1322.99 475.72, 1324.35 473.91, 1325.37 471.63 C 1326.39 469.35, 1326.19 468.44, 1326.38 468.38 C 1326.56 468.31, 1326.02 469.01, 1326.29 471.30 C 1326.56 473.58, 1327.27 475.53, 1327.73 479.81 C 1328.19 484.09, 1328.42 487.20, 1328.58 492.71 C 1328.73 498.21, 1328.69 501.57, 1328.50 507.35 C 1328.32 513.13, 1328.05 516.35, 1327.66 521.59 C 1327.27 526.84, 1326.82 529.51, 1326.55 533.57 C 1326.28 537.63, 1325.80 539.53, 1326.30 541.89 C 1326.80 544.26, 1327.65 545.15, 1329.04 545.40 C 1330.44 545.64, 1331.85 545.33, 1333.26 543.12 C 1334.66 540.90, 1334.75 538.70, 1336.07 534.31 C 1337.39 529.93, 1337.95 526.84, 1339.86 521.17 C 1341.78 515.51, 1342.95 512.03, 1345.65 505.99 C 1348.35 499.95, 1350.00 496.53, 1353.36 490.98 C 1356.71 485.43, 1358.67 482.65, 1362.43 478.23 C 1366.19 473.81, 1368.28 471.82, 1372.15 468.87 C 1376.03 465.92, 1378.13 464.82, 1381.80 463.48 C 1385.48 462.14, 1387.30 461.97, 1390.54 462.17 C 1393.79 462.37, 1395.22 462.80, 1398.01 464.49 C 1400.80 466.17, 1402.19 467.36, 1404.50 470.60 C 1406.80 473.83, 1407.91 476.00, 1409.54 480.66 C 1411.16 485.32, 1411.77 488.22, 1412.61 493.89 C 1413.45 499.56, 1413.61 502.89, 1413.74 509.00 C 1413.88 515.12, 1413.61 518.48, 1413.28 524.46 C 1412.95 530.44, 1412.62 533.68, 1412.09 538.91 C 1411.56 544.14, 1411.12 546.61, 1410.62 550.59 C 1410.12 554.58, 1409.68 556.25, 1409.59 558.83 C 1409.49 561.40, 1409.79 562.20, 1410.15 563.48 C 1410.51 564.76, 1410.94 564.86, 1411.38 565.24 C 1411.81 565.62, 1412.13 565.44, 1412.34 565.38 C 1412.56 565.32, 1412.36 565.04, 1412.47 564.95 C 1412.58 564.86, 1412.59 565.22, 1412.88 564.93 C 1413.18 564.64, 1413.60 564.66, 1413.96 563.50 C 1414.33 562.33, 1414.56 561.60, 1414.73 559.09 C 1414.90 556.59, 1414.64 554.93, 1414.82 550.95 C 1414.99 546.97, 1415.25 544.47, 1415.59 539.20 C 1415.93 533.94, 1416.24 530.67, 1416.51 524.62 C 1416.79 518.57, 1417.07 515.18, 1416.97 508.94 C 1416.88 502.70, 1416.79 499.32, 1416.04 493.42 C 1415.28 487.52, 1414.80 484.50, 1413.19 479.45 C 1411.58 474.40, 1410.56 471.92, 1407.98 468.16 C 1405.41 464.41, 1403.74 462.73, 1400.30 460.68 C 1396.85 458.63, 1394.73 458.05, 1390.76 457.90 C 1386.78 457.74, 1384.56 458.23, 1380.43 459.90 C 1376.29 461.56, 1374.14 462.93, 1370.07 466.21 C 1366.00 469.48, 1363.93 471.61, 1360.07 476.25 C 1356.22 480.89, 1354.26 483.75, 1350.80 489.43 C 1347.33 495.11, 1345.67 498.57, 1342.76 504.65 C 1339.85 510.73, 1338.53 514.21, 1336.24 519.82 C 1333.94 525.43, 1332.88 528.44, 1331.28 532.70 C 1329.68 536.95, 1328.67 538.77, 1328.24 541.11 C 1327.82 543.44, 1328.66 544.25, 1329.18 544.38 C 1329.69 544.51, 1330.47 543.87, 1330.82 541.74 C 1331.17 539.62, 1330.84 537.76, 1330.94 533.77 C 1331.05 529.79, 1331.11 527.07, 1331.34 521.81 C 1331.58 516.56, 1331.86 513.32, 1332.13 507.49 C 1332.41 501.67, 1332.60 498.32, 1332.73 492.70 C 1332.86 487.07, 1333.05 483.98, 1332.77 479.39 C 1332.48 474.80, 1332.59 472.39, 1331.33 469.73 C 1330.06 467.07, 1328.46 466.22, 1326.43 466.11 C 1324.39 465.99, 1322.93 466.70, 1321.16 469.15 C 1319.39 471.60, 1319.08 474.02, 1317.58 478.37 C 1316.09 482.71, 1315.37 485.47, 1313.70 490.87 C 1312.02 496.27, 1311.09 499.44, 1309.22 505.38 C 1307.34 511.31, 1306.32 514.68, 1304.32 520.55 C 1302.33 526.41, 1301.28 529.54, 1299.23 534.69 C 1297.17 539.85, 1296.06 542.46, 1294.04 546.31 C 1292.01 550.16, 1290.72 551.65, 1289.09 553.96 C 1287.47 556.26, 1286.99 556.94, 1285.91 557.82 C 1284.83 558.69, 1284.63 558.89, 1283.69 558.34 C 1282.75 557.78, 1282.42 557.05, 1281.22 555.02 C 1280.03 553.00, 1278.98 551.66, 1277.73 548.22 C 1276.47 544.79, 1275.84 542.57, 1274.94 537.86 C 1274.03 533.15, 1273.67 530.32, 1273.20 524.68 C 1272.73 519.05, 1272.60 515.75, 1272.58 509.67 C 1272.56 503.60, 1272.77 499.93, 1273.11 494.30 C 1273.45 488.68, 1274.08 485.56, 1274.28 481.55 C 1274.48 477.55, 1274.59 475.85, 1274.11 474.28 C 1273.63 472.72, 1272.60 472.54, 1271.87 473.73 C 1271.13 474.91, 1271.09 476.52, 1270.43 480.19 C 1269.77 483.87, 1269.93 486.93, 1268.58 492.09 C 1267.24 497.25, 1266.19 500.33, 1263.73 505.99 C 1261.26 511.64, 1259.64 514.92, 1256.26 520.37 C 1252.88 525.81, 1250.86 528.64, 1246.81 533.20 C 1242.76 537.77, 1240.42 539.98, 1236.02 543.17 C 1231.62 546.36, 1229.16 547.58, 1224.81 549.17 C 1220.45 550.76, 1218.18 551.09, 1214.24 551.13 C 1210.31 551.17, 1208.39 550.75, 1205.15 549.36 C 1201.90 547.97, 1200.36 546.86, 1198.03 544.16 C 1195.71 541.46, 1194.64 539.79, 1193.52 535.88 C 1192.40 531.98, 1192.05 529.56, 1192.43 524.64 C 1192.81 519.72, 1193.42 516.70, 1195.40 511.29 C 1197.37 505.88, 1198.93 502.82, 1202.29 497.58 C 1205.65 492.33, 1207.93 489.52, 1212.21 485.08 C 1216.48 480.64, 1219.09 478.50, 1223.68 475.36 C 1228.27 472.21, 1230.84 471.02, 1235.16 469.34 C 1239.47 467.67, 1241.74 467.31, 1245.25 466.98 C 1248.76 466.66, 1250.13 467.03, 1252.69 467.72 C 1255.25 468.42, 1256.17 469.42, 1258.04 470.44 C 1259.92 471.47, 1260.62 472.07, 1262.06 472.84 C 1263.50 473.62, 1264.18 474.37, 1265.25 474.32 C 1266.33 474.27, 1267.24 473.74, 1267.43 472.58" style="stroke: black; fill: black;"/></svg>